<svg width="3428" height="3156" viewBox="0 0 3428 3156" fill="none" xmlns="http://www.w3.org/2000/svg">
<g filter="url(#filter0_d_18_17)">
<path d="M1389.96 54.896C1593.82 18.9506 1711.54 90.5513 1743.13 269.698L2015.98 1817.16C2047.57 1996.3 1961.44 2103.85 1757.58 2139.8C1553.73 2175.74 1436 2104.14 1404.41 1924.99L1310.74 1393.73L893.759 1467.25L987.435 1998.52C1019.02 2177.66 932.889 2285.21 729.032 2321.16C525.175 2357.1 407.453 2285.5 375.864 2106.35L103.006 558.896C71.4172 379.749 157.551 272.203 361.408 236.257C565.265 200.312 682.988 271.912 714.576 451.059L806.618 973.056L1223.6 899.531L1131.56 377.535C1099.97 198.388 1186.1 90.8415 1389.96 54.896Z" fill="#FF6E1B"/>
</g>
<g filter="url(#filter1_d_18_17)">
<path d="M2561.69 2281.38L2246.12 2253.77L2208.4 2684.94C2192.54 2866.16 2081.51 2947.75 1875.3 2929.71C1669.08 2911.67 1573.9 2812.04 1589.76 2630.82L1726.16 1071.72C1742.01 890.5 1853.05 808.912 2059.26 826.953L2759.14 888.184C2933.07 903.401 3072.34 984.85 3176.96 1132.53C3282.71 1279.26 3324.69 1447.17 3302.9 1636.27C3282.24 1824.41 3203.27 1983.32 3065.99 2112.98C2928.72 2242.65 2760.61 2298.78 2561.69 2281.38ZM2510.05 1288.27L2331.95 1272.69L2289.86 1753.86L2467.95 1769.44C2642.92 1784.75 2737.42 1712.21 2751.45 1551.82C2765.49 1391.43 2685.02 1303.58 2510.05 1288.27Z" fill="#5A2828"/>
</g>
<g clip-path="url(#clip0_18_17)">
<rect width="1040.45" height="1040.45" transform="translate(1924.25 1015.79)" fill="#5A2828"/>
<path d="M2939.22 1534.76C2936.98 1507.86 2926.01 1485.42 2907.47 1469.88L2907.22 1469.68C2898.75 1462.71 2889.04 1457.39 2878.61 1454L2877.46 1453.63C2828.38 1438.44 2764.98 1463.69 2719.72 1516.47C2686.57 1555.05 2668.78 1602.38 2672.14 1643.06C2674.35 1669.97 2685.36 1692.42 2703.99 1708L2704.19 1708.17C2712.66 1715.13 2722.37 1720.45 2732.8 1723.84C2782.11 1739.92 2846.03 1714.84 2892.02 1661.4C2924.92 1622.79 2942.59 1575.47 2939.22 1534.76ZM2658.21 1734.45C2635.56 1708.34 2614.15 1683.65 2606.14 1649.22C2584.12 1553.96 2570.81 1496.46 2494.84 1471.69C2418.87 1446.92 2374.15 1485.5 2300.11 1549.43C2273.29 1572.55 2241.38 1579.88 2207.58 1587.66C2168.83 1596.57 2128.8 1605.77 2101.44 1640.65C2091.16 1653.09 2083.37 1667.38 2078.48 1682.76C2057.47 1747.22 2090.57 1816.03 2152.25 1836.14C2184.08 1846.52 2221.54 1846.54 2261.19 1846.55C2299.31 1846.56 2338.72 1846.58 2369.53 1856.62C2400.33 1866.67 2432.09 1889.85 2462.76 1912.27C2494.75 1935.54 2524.86 1957.56 2556.78 1967.96C2618.37 1988.04 2685.59 1951.94 2706.6 1887.48C2711.66 1872.15 2713.73 1855.99 2712.7 1839.88C2711.17 1795.54 2684.24 1764.48 2658.21 1734.45ZM2325.33 1346.7C2337.94 1380.42 2360.2 1403.99 2388.03 1413.06C2391.83 1414.3 2395.72 1415.26 2399.66 1415.92C2460.48 1426.31 2519.74 1367.28 2534.61 1281.39C2540.88 1245.29 2538.09 1208.86 2526.84 1178.85C2514.25 1145.19 2491.94 1121.63 2464.13 1112.56C2460.33 1111.32 2456.45 1110.36 2452.51 1109.7C2391.69 1099.31 2332.43 1158.34 2317.56 1244.23C2311.28 1280.27 2314.09 1316.67 2325.33 1346.7ZM2604.62 1482.75C2608.19 1484.53 2611.89 1486.05 2615.69 1487.29C2643.54 1496.37 2675.4 1490.46 2705.47 1470.64C2732.22 1453 2755.88 1425.23 2772.14 1392.4C2810.74 1314.3 2797.66 1231.68 2742.42 1204.19C2738.84 1202.4 2735.14 1200.88 2731.34 1199.64C2703.52 1190.61 2671.61 1196.49 2641.6 1216.26C2614.83 1233.88 2591.09 1261.66 2574.89 1294.57C2536.29 1372.67 2549.36 1455.29 2604.62 1482.75ZM2186.33 1539.31L2186.61 1539.31C2210.8 1537.69 2232.91 1526.05 2250.53 1505.64C2277.25 1474.68 2290.77 1426.02 2286.77 1375.32C2281.23 1305.16 2244.4 1247.21 2195.14 1231.15C2184.72 1227.74 2173.74 1226.31 2162.79 1226.95L2162.51 1226.96C2138.4 1228.52 2116.27 1240.23 2098.64 1260.64C2071.93 1291.61 2058.4 1340.26 2062.4 1390.96C2067.95 1461.12 2104.78 1519.07 2154.03 1535.13C2164.44 1538.53 2175.4 1539.95 2186.33 1539.31Z" fill="#FFFFFA"/>
</g>
<defs>
<filter id="filter0_d_18_17" x="0.0258026" y="0.977905" width="2118.94" height="2485.29" filterUnits="userSpaceOnUse" color-interpolation-filters="sRGB">
<feFlood flood-opacity="0" result="BackgroundImageFix"/>
<feColorMatrix in="SourceAlpha" type="matrix" values="0 0 0 0 0 0 0 0 0 0 0 0 0 0 0 0 0 0 127 0" result="hardAlpha"/>
<feOffset dy="55.5972"/>
<feGaussianBlur stdDeviation="27.7986"/>
<feComposite in2="hardAlpha" operator="out"/>
<feColorMatrix type="matrix" values="0 0 0 0 0 0 0 0 0 0 0 0 0 0 0 0 0 0 0.25 0"/>
<feBlend mode="normal" in2="BackgroundImageFix" result="effect1_dropShadow_18_17"/>
<feBlend mode="normal" in="SourceGraphic" in2="effect1_dropShadow_18_17" result="shape"/>
</filter>
<filter id="filter1_d_18_17" x="1510.38" y="799.891" width="1916.75" height="2355.82" filterUnits="userSpaceOnUse" color-interpolation-filters="sRGB">
<feFlood flood-opacity="0" result="BackgroundImageFix"/>
<feColorMatrix in="SourceAlpha" type="matrix" values="0 0 0 0 0 0 0 0 0 0 0 0 0 0 0 0 0 0 127 0" result="hardAlpha"/>
<feOffset dy="55.5972"/>
<feGaussianBlur stdDeviation="27.7986"/>
<feComposite in2="hardAlpha" operator="out"/>
<feColorMatrix type="matrix" values="0 0 0 0 0 0 0 0 0 0 0 0 0 0 0 0 0 0 0.25 0"/>
<feBlend mode="normal" in2="BackgroundImageFix" result="effect1_dropShadow_18_17"/>
<feBlend mode="normal" in="SourceGraphic" in2="effect1_dropShadow_18_17" result="shape"/>
</filter>
<clipPath id="clip0_18_17">
<rect width="1040.45" height="1040.45" fill="white" transform="translate(1924.25 1015.79)"/>
</clipPath>
</defs>
</svg>
